<?xml version="1.0" standalone="no"?>
<!DOCTYPE svg PUBLIC "-//W3C//DTD SVG 20010904//EN"
 "http://www.w3.org/TR/2001/REC-SVG-20010904/DTD/svg10.dtd">
<svg version="1.0" xmlns="http://www.w3.org/2000/svg"
 width="257.000000pt" height="257.000000pt" viewBox="0 0 257.000000 257.000000"
 preserveAspectRatio="xMidYMid meet">
<metadata>
Created by potrace 1.14, written by Peter Selinger 2001-2017
</metadata>
<g transform="translate(0.000000,257.000000) scale(0.100000,-0.100000)"
fill="#000000" stroke="none">
<path d="M775 1785 c-231 -118 -440 -226 -465 -239 l-45 -25 -3 -112 c-3 -111
-3 -113 -112 -456 -61 -190 -110 -349 -110 -354 0 -5 453 -9 1088 -9 l1089 0
61 56 c66 59 157 187 192 269 26 60 50 178 50 245 0 27 -6 82 -14 123 -42 216
-172 406 -369 534 -143 94 -253 126 -502 148 -93 8 -213 19 -265 25 -171 18
-133 31 -595 -205z m690 140 c174 -11 370 -36 402 -52 18 -9 43 -32 57 -53 16
-25 50 -51 98 -78 123 -68 234 -184 295 -307 29 -57 42 -394 18 -451 -10 -24
-15 -69 -15 -133 0 -88 -2 -100 -22 -118 -13 -12 -40 -24 -60 -28 -21 -4 -42
-13 -49 -21 -6 -8 -25 -14 -42 -14 -31 0 -31 0 -12 19 11 11 45 26 75 33 44
11 56 18 62 38 12 45 28 321 28 492 l0 167 -29 20 c-16 11 -36 38 -44 59 -8
21 -35 59 -59 85 -37 40 -54 49 -129 71 l-87 26 -21 57 c-28 74 -72 109 -144
117 -29 4 -126 11 -216 16 -140 9 -167 8 -179 -4 -18 -18 -31 -187 -38 -509
-6 -229 -7 -238 -25 -235 -11 2 -20 6 -19 11 0 4 0 187 0 407 l0 401 33 -5
c17 -3 73 -8 122 -11z m-275 -425 l-5 -385 -110 -32 c-60 -17 -164 -47 -230
-67 -201 -60 -531 -156 -538 -156 -9 0 4 574 14 584 7 8 874 447 874 442 0 0
-2 -174 -5 -386z m76 269 c-3 -17 -6 -177 -6 -355 0 -281 -2 -324 -15 -324
-13 0 -15 46 -15 355 l0 355 21 0 c19 0 21 -4 15 -31z m245 10 l24 -20 -30 17
c-39 24 -40 24 -28 24 6 0 21 -9 34 -21z m214 -63 c170 -10 205 -15 205 -34 0
-12 -10 -14 -61 -8 -34 3 -111 6 -170 6 -92 0 -108 2 -103 15 4 9 -4 24 -17
36 l-24 20 25 -14 c16 -10 69 -17 145 -21z m-31 -171 c-24 -19 -25 -21 -10
-50 16 -30 16 -30 -17 -41 -17 -6 -33 -10 -34 -9 -2 1 3 25 11 53 14 57 11 61
-38 42 -25 -9 -26 -13 -26 -82 0 -40 -5 -80 -10 -88 -7 -10 -9 14 -8 78 l3 93
65 28 c58 25 66 26 78 12 10 -13 8 -18 -14 -36z m348 -21 c94 -4 151 -10 157
-18 15 -17 71 -168 71 -189 0 -15 -5 -18 -27 -13 -16 3 -116 8 -224 12 -108 3
-201 9 -207 13 -5 3 -19 53 -29 109 l-20 104 66 -6 c36 -3 132 -8 213 -12z
m-342 -164 c0 -33 -3 -60 -7 -60 -5 0 -22 9 -39 19 -28 17 -31 23 -25 52 6 31
22 42 64 48 4 1 7 -26 7 -59z m447 -136 l92 -6 3 -110 c4 -147 10 -143 -204
-143 -108 0 -161 4 -166 11 -4 7 -27 16 -52 22 -43 9 -43 10 -11 11 l34 1 -5
115 -5 116 111 -6 c61 -3 152 -8 203 -11z m-997 -264 c0 -56 -3 -70 -15 -70
-12 0 -15 14 -15 63 0 35 3 67 7 70 17 18 23 1 23 -63z m-180 11 c0 -23 -1
-24 -158 -60 -165 -39 -264 -58 -332 -65 -71 -7 -75 -9 205 69 132 37 245 68
250 70 24 8 35 4 35 -14z m585 -149 c0 -78 -4 -102 -19 -124 -10 -15 -22 -25
-27 -22 -25 15 -42 73 -43 144 0 105 30 158 69 119 17 -17 20 -33 20 -117z
m-484 76 c19 -71 -3 -192 -37 -205 -29 -11 -47 22 -52 99 -6 93 14 148 52 148
21 0 27 -7 37 -42z m847 -21 c29 -27 239 -25 284 3 53 32 59 28 56 -37 -3 -56
-4 -58 -32 -61 -49 -6 -78 6 -71 28 6 19 1 20 -95 20 -87 0 -102 -2 -107 -17
-10 -29 -24 -33 -105 -33 l-78 0 0 61 0 61 64 -4 c42 -2 71 -10 84 -21z
m-1028 -61 c0 -25 -4 -47 -9 -50 -4 -3 -34 -8 -65 -12 l-56 -7 0 51 0 51 38 4
c96 10 92 12 92 -37z m-473 18 c-3 -3 -12 -4 -19 -1 -8 3 -5 6 6 6 11 1 17 -2
13 -5z m193 -53 c0 -16 -5 -42 -11 -58 -8 -22 -12 -24 -19 -13 -9 14 -4 73 7
93 10 17 23 5 23 -22z m-80 -37 c0 -32 -4 -44 -15 -44 -11 0 -15 11 -15 43 0
24 3 47 6 50 14 14 24 -6 24 -49z m-90 2 c0 -46 -13 -68 -24 -40 -12 32 -7 84
9 84 11 0 15 -12 15 -44z m518 -8 c6 -18 13 -41 17 -50 7 -17 -4 -18 -134 -18
-117 0 -139 2 -135 14 4 10 34 16 110 21 100 7 104 8 104 30 0 20 5 25 27 34
1 1 6 -14 11 -31z m-568 -48 c10 -19 8 -20 -60 -20 -68 0 -70 1 -60 20 8 16
21 20 60 20 39 0 52 -4 60 -20z m800 16 c0 -2 3 -11 6 -20 5 -13 -2 -16 -35
-16 -39 0 -53 14 -34 33 7 8 63 10 63 3z m260 0 c0 -2 3 -11 6 -20 5 -13 -3
-16 -50 -16 -40 0 -56 4 -56 13 0 8 3 17 7 20 7 7 93 10 93 3z m500 -16 c11
-20 8 -20 -154 -20 -159 0 -164 1 -159 20 5 19 14 20 154 20 138 0 149 -1 159
-20z"/>
<path d="M868 1473 l-38 -15 0 -99 c0 -54 3 -99 8 -99 23 1 36 22 34 55 -4 43
11 45 35 5 15 -26 22 -30 43 -25 35 9 35 11 6 45 -28 34 -32 45 -16 55 14 9
13 68 -2 83 -15 15 -24 15 -70 -5z m42 -46 c0 -14 -20 -37 -32 -37 -10 0 -11
34 -1 43 11 12 33 8 33 -6z"/>
<path d="M711 1404 c-39 -50 -20 -124 28 -109 16 5 19 3 15 -8 -3 -9 -16 -18
-30 -21 -24 -6 -32 -30 -15 -41 16 -10 62 18 77 46 17 34 19 130 2 147 -20 20
-55 13 -77 -14z m49 -39 c0 -16 -6 -25 -15 -25 -15 0 -21 31 -8 43 13 14 23 6
23 -18z"/>
<path d="M613 1380 c-49 -20 -73 -139 -35 -173 23 -21 37 -21 73 0 22 13 29
25 29 49 0 54 -7 64 -41 52 -19 -6 -29 -17 -29 -30 0 -14 5 -18 16 -14 11 4
14 1 12 -12 -5 -26 -31 -21 -42 9 -14 39 12 85 47 82 22 -1 27 2 27 23 0 26
-17 30 -57 14z"/>
<path d="M517 1343 c-4 -3 -7 -19 -7 -34 0 -18 -7 -32 -20 -39 -18 -10 -20 -8
-20 20 0 20 -5 30 -15 30 -12 0 -15 -17 -15 -90 0 -74 3 -88 14 -84 8 3 16 22
18 42 2 26 8 38 21 40 13 3 17 -4 17 -32 0 -27 3 -34 15 -30 12 5 15 25 15 95
0 82 -5 100 -23 82z"/>
<path d="M1900 1191 c0 -18 6 -21 43 -21 24 0 92 -3 150 -7 105 -6 107 -6 107
15 0 21 -5 22 -89 22 -48 0 -116 3 -150 6 -58 7 -61 6 -61 -15z"/>
<path d="M1900 1126 c0 -17 40 -23 188 -25 90 -2 112 1 112 12 0 11 -23 16
-92 21 -149 10 -208 8 -208 -8z"/>
<path d="M1910 1055 c0 -13 23 -15 145 -15 122 0 145 2 145 15 0 13 -23 15
-145 15 -122 0 -145 -2 -145 -15z"/>
<path d="M1917 1004 c-18 -18 17 -24 144 -24 117 0 139 2 139 15 0 13 -22 15
-138 15 -76 0 -142 -3 -145 -6z"/>
</g>
</svg>
